inDegrees=no
num_controls=7
num_derivatives=13
num_iterations=115
num_multipliers=7
num_parameters=0
num_slacks=7
num_states=26
objective=0.515850
objective_accelerations=0.040978
objective_balance=0.002294
objective_effort=0.045411
objective_height=0.415588
objective_ligament=0.011579
solver_duration=1532.803726
status=Solve_Succeeded
success=true
DataType=double
version=3
OpenSimVersion=4.5
endheader
time	/jointset/ground_pelvis/pelvis_tilt/value	/jointset/ground_pelvis/pelvis_tx/value	/jointset/ground_pelvis/pelvis_ty/value	/jointset/hip_l/hip_flexion_l/value	/jointset/hip_l/hip_adduction_l/value	/jointset/hip_l/hip_rotation_l/value	/jointset/back/lumbar_extension/value	/jointset/patellofemoral_l/patellar_flexion_l/value	/jointset/knee_l/knee_flexion_l/value	/jointset/knee_l/knee_adduction_l/value	/jointset/knee_l/knee_rotation_l/value	/jointset/ankle_l/ankle_angle_l/value	/jointset/subtalar_l/subtalar_angle_l/value	/jointset/ground_pelvis/pelvis_tilt/speed	/jointset/ground_pelvis/pelvis_tx/speed	/jointset/ground_pelvis/pelvis_ty/speed	/jointset/hip_l/hip_flexion_l/speed	/jointset/hip_l/hip_adduction_l/speed	/jointset/hip_l/hip_rotation_l/speed	/jointset/back/lumbar_extension/speed	/jointset/patellofemoral_l/patellar_flexion_l/speed	/jointset/knee_l/knee_flexion_l/speed	/jointset/knee_l/knee_adduction_l/speed	/jointset/knee_l/knee_rotation_l/speed	/jointset/ankle_l/ankle_angle_l/speed	/jointset/subtalar_l/subtalar_angle_l/speed	/forceset/tau_hip_flexion_l	/forceset/tau_hip_adduction_l	/forceset/tau_hip_rotation_l	/forceset/tau_knee_flexion_l	/forceset/tau_ankle_angle_l	/forceset/tau_subtalar_angle_l	/forceset/tau_lumbar_extension	lambda_cid13_p0	lambda_cid13_p1	lambda_cid13_p2	lambda_cid13_p3	lambda_cid13_p4	lambda_cid13_p5	lambda_cid14_p0	/jointset/ground_pelvis/pelvis_tilt/accel	/jointset/ground_pelvis/pelvis_tx/accel	/jointset/ground_pelvis/pelvis_ty/accel	/jointset/hip_l/hip_flexion_l/accel	/jointset/hip_l/hip_adduction_l/accel	/jointset/hip_l/hip_rotation_l/accel	/jointset/back/lumbar_extension/accel	/jointset/patellofemoral_l/patellar_flexion_l/accel	/jointset/knee_l/knee_flexion_l/accel	/jointset/knee_l/knee_adduction_l/accel	/jointset/knee_l/knee_rotation_l/accel	/jointset/ankle_l/ankle_angle_l/accel	/jointset/subtalar_l/subtalar_angle_l/accel	gamma_cid13_p0	gamma_cid13_p1	gamma_cid13_p2	gamma_cid13_p3	gamma_cid13_p4	gamma_cid13_p5	gamma_cid14_p0
1	-0.1754596501848143	-0.09686793913418346	0.7165336273651602	1.302165664922839	-0.3277526463383827	0.005364408902254167	-0.9599308203416825	1.18403981316601	1.184039813165991	-0.07964381510961667	-0.1745309223266169	0.1369998737084694	0.009888861856234154	0.104807885316112	0.02455900371249449	0.06869796723426018	-0.293323068640629	-0.0004369349865315056	-0.06487731316582906	-0.001200865985421762	-0.1681844918858791	-0.1681844918858929	0.0001036256640052597	-4.328255385920002e-05	0.01163193078930842	0.004695935598223218	-0.4101506644524576	0.01857253059532685	-0.004679321799263597	-0.296182873570091	0.114487694341849	0.03714041411842679	0.4412967358433012	-13.79381788805368	-13.36395235592597	1.275423490244681	4.822535535166577	-789.1707862324448	-65.06663473452309	-1.330909640696145	1.106663037800319	0.1887144224968561	1.306395734828931	-4.827894915248067	-0.03226684049383492	-1.43760941018864	0.2223536389969306	-4.184702914922857	-4.184702914922894	-0.2054973578727369	-0.008787558792551662	-0.7375292344285277	-0.2815233878103723	-9.105044513546054e-09	-1.113101899578401e-08	4.228548836832681e-08	2.013030260536612e-09	-2.081004860555057e-08	5.591520372843355e-08	-1.183890486425928e-08
1.01	-0.1743567457004055	-0.09661288802628519	0.7172856550204748	1.298992179558919	-0.3277579963263398	0.004643571471738758	-0.9599310634817885	1.182149242755923	1.182149242755925	-0.07965181975506974	-0.1745311507296755	0.1370794215449619	0.009922509896628197	0.1157682582077137	0.02645611323864866	0.0816913303798905	-0.341338882990217	-0.0006261023320737721	-0.07928088114899075	0.00116209615240958	-0.2099072147911158	-0.2099072147911298	-0.001702772495582566	-4.763732207545052e-06	0.00427155563478185	0.002039233081863675	-0.4090279136735729	0.0187106285425168	-0.004716628733859731	-0.2960062124839868	0.114536231545325	0.0371968765208517	0.4406311008971468	-13.73102844283037	-13.40643117316723	1.290149415433935	4.676713186104404	-788.5298897299132	-65.12578595952873	-1.365523988080315	1.090009665182642	0.1909446476788238	1.293366548544467	-4.783158857222912	-0.01119994013218169	-1.440350375835433	0.2447462306292371	-4.16269758219751	-4.162697582197493	-0.1679517757388823	0.009830011090270275	-0.7362046990923263	-0.2569131391705144	-1.371357756327025e-08	-1.848653167104549e-08	5.60893540101992e-08	5.585336256188147e-09	-2.514903315688073e-08	6.417231101785118e-08	-1.543896480528184e-08
1.02	-0.1731443804370122	-0.09633871873712455	0.7181671282960685	1.295339589219021	-0.3277650296394621	0.003778974384700884	-0.9599073812547074	1.179842116996008	1.179842116996032	-0.07967783652826535	-0.1745310622628333	0.1370851830212835	0.009929757020734281	0.1267000411130173	0.02838263996496783	0.09458709129009582	-0.3891440638361556	-0.0007736000195266413	-0.09362924447037282	0.003584207468360831	-0.2514955618512901	-0.251495561851303	-0.003498799884653409	2.009142729360597e-05	-0.003125341244848831	-0.0005842476593667567	-0.4079051628946923	0.01884872648970688	-0.004753935668457984	-0.2958295513978828	0.1145847687488019	0.0372533389232771	0.4399654659509888	-13.67848516447949	-13.44685524574413	1.304250020394987	4.566791305695246	-788.027209641775	-65.17524200832736	-1.408354007368951	1.100945040540687	0.1945978625298551	1.286875287743932	-4.785768214518161	-0.02393290887594534	-1.426568477832703	0.2341834746209121	-4.157827745910379	-4.157827745910149	-0.2034232037693377	-0.01152029122263066	-0.7448335794493499	-0.2748790327845388	-1.908852783582332e-08	-2.730381367059341e-08	6.8234836127939e-08	1.052279068075292e-08	-3.124780529578593e-08	7.098062256426641e-08	-1.887635076520528e-08
1.03	-0.1718232898240855	-0.09604492959470504	0.7191770718383316	1.291210196666273	-0.3277733107340666	0.002771238085798554	-0.959857238518826	1.177119740939485	1.17711974093952	-0.07972183093156193	-0.1745307555095106	0.1370170172352758	0.009911039388235867	0.1374689909858549	0.03040113133437145	0.1073857034905879	-0.4366814626708877	-0.0008752333363221935	-0.1079066969465159	0.006648205461863551	-0.2929618762858874	-0.2929618762859135	-0.005303583274430151	3.862780661960926e-05	-0.01049155085750919	-0.003144985622651085	-0.4084246732002882	0.01925970358002388	-0.004804330486254873	-0.2950734719551155	0.1143915325889669	0.03743259336070411	0.441182301902308	-13.74692106965913	-13.52801480726293	1.334656169268405	4.12441347590556	-788.5578955920754	-65.21052047721048	-1.459718758556093	1.057504325953631	0.2093693213056911	1.273959625440702	-4.729781179300554	-0.002174111713579745	-1.426656053809563	0.3730878246070422	-4.138362833873302	-4.138362833875435	-0.1695436293502868	0.008164669917089584	-0.7300772808793952	-0.2445306326550863	-2.447129869228282e-08	-3.613601168365447e-08	8.03633959648203e-08	1.547417519132701e-08	-3.736453445089088e-08	7.7774150480651e-08	-2.231207678654608e-08
1.04	-0.1703959828393714	-0.09573017662915946	0.720314522590447	1.286607019032909	-0.3277823872755655	0.001621062777874946	-0.9597703398304243	1.173983235830288	1.173983235830335	-0.07978398071330789	-0.1745303385789197	0.1368756768274005	0.009867142485193657	0.1479433154706275	0.03257540459018108	0.1200885332606335	-0.4839010799596123	-0.0009326893984071914	-0.1221170462748378	0.01093539797104994	-0.3343213723860415	-0.3343213723860824	-0.007129875574944728	4.212688222019251e-05	-0.01776026561837041	-0.005620101768123936	-0.4089441835058792	0.01967068067034351	-0.004854725304041333	-0.2943173925123486	0.1141982964291313	0.03761184779813382	0.4423991378536312	-13.82579045450301	-13.60716664158761	1.364535672684523	3.716621654307143	-789.2305777715278	-65.23681460244698	-1.519978935227367	1.042019962927653	0.2257542398110557	1.26771880165465	-4.722211905316669	-0.01509745793383084	-1.413147848268448	0.4788223777576117	-4.136464079021773	-4.136464079021863	-0.2077249859169043	-0.01452775196770661	-0.7253346090895214	-0.2577546692222393	-2.726698470191251e-08	-4.401390221389854e-08	8.970342728947982e-08	1.623529659604549e-08	-4.120286624930793e-08	8.087491168634108e-08	-2.492360688747077e-08
1.05	-0.1688652589916124	-0.09539290636679096	0.7215784807964157	1.28153319671765	-0.3277918003132234	0.0003292034061812359	-0.9596348827224495	1.170433745010152	1.170433745010223	-0.07986455045581253	-0.1745299513399578	0.1366621070410352	0.009798931980592736	0.1581649780612788	0.03490413718306593	0.1326827304478981	-0.5308117251578385	-0.0009385261442791977	-0.1362391480550652	0.01631965523442374	-0.3755514630416075	-0.3755514630416423	-0.008985629166601092	3.552615375354997e-05	-0.02493998662726302	-0.008003944495573788	-0.4087996514043724	0.01994140427633706	-0.004912350958399419	-0.2935550677302974	0.1142111373197075	0.03790060536611994	0.4430228527673577	-13.80006789393603	-13.75765960016518	1.412037598513471	3.243360313167283	-789.3467379370693	-65.40228466969506	-1.589573355384427	1.006765463734616	0.2402595434263808	1.25220452242935	-4.667745852194765	0.008377514445283471	-1.409414415539764	0.592772142133957	-4.112476740893501	-4.112476740892516	-0.1747495273942709	0.006327420844132567	-0.7122381873111003	-0.2259939453573689	-2.998182431007878e-08	-5.186197063530461e-08	9.895631709813242e-08	1.686547227870601e-08	-4.496999813032849e-08	8.386027393232197e-08	-2.750938086588245e-08
